<svg version="1.2" baseProfile="tiny-ps" xmlns="http://www.w3.org/2000/svg" viewBox="0 0 1522 1509" width="1522" height="1509">
	<title>Applied_Materials_Inc</title>
	<style>
		tspan { white-space:pre }
		.shp0 { fill: #569bbe } 
	</style>
	<path id="Layer" class="shp0" d="M984.21 210.75L312.04 210.18L208.07 315.16L984.21 315.57C1102.85 315.57 1198.7 409.59 1198.7 525.44L1198.7 1508.69L1306.31 1508.69L1306.64 525.44C1306.64 351.61 1162.25 210.75 984.21 210.75ZM1521.81 1508.69L1521.71 525.44C1521.71 235.83 1281.03 0.07 984.17 0.07L519.94 0L416 104.99L984.21 105.12C1221.62 105.12 1414.08 293.71 1414.08 525.44L1414.08 1508.69L1521.81 1508.69L1521.81 1508.69ZM984.21 420.52L104.27 420.32L0 525.24L1.41 525.24L0 525.44L0.03 983.49C0.03 1250.63 203.79 1471.8 468.68 1504.72L568 1403.94L537.61 1403.77C300.09 1403.77 107.57 1215.12 107.57 983.49L107.57 525.27L215.34 525.27L215.07 983.49C215.07 1157.14 359.46 1298.08 537.61 1298.08L672.64 1298.08L776.44 1193.19L537.61 1193.19C418.9 1193.19 323.08 1099.23 323.08 983.49L323.08 525.27L429.74 525.27L429.84 983.49C430.17 1041.39 478.17 1088.17 537.57 1088.17L880.17 1088.17L983.83 983.59L537.57 983.49L537.57 525.34L984.17 525.44L984.17 1508.69L1091.98 1508.69L1091.94 525.44C1091.61 467.43 1043.58 420.52 984.21 420.52Z" />
	<g id="Layer">
	</g>
</svg>